<svg version="1.1" id="Layer_1" xmlns="http://www.w3.org/2000/svg" xmlns:xlink="http://www.w3.org/1999/xlink" x="0px" y="0px"
	 width="100%" viewBox="0 0 633 447" enable-background="new 0 0 633 447" xml:space="preserve">
<path fill="#1F1E1C" opacity="1.000000" stroke="none" 
	d="
M381.000000,448.000000 
	C254.029282,448.000000 127.558556,448.000000 1.043917,448.000000 
	C1.043917,299.063782 1.043917,150.127533 1.043917,1.095645 
	C211.887375,1.095645 422.774811,1.095645 633.831116,1.095645 
	C633.831116,149.999847 633.831116,298.999908 633.831116,448.000000 
	C549.794250,448.000000 465.647125,448.000000 381.000000,448.000000 
M413.743195,162.521042 
	C402.983673,161.645859 392.230194,160.162827 381.463013,160.055389 
	C369.100555,159.932022 365.788605,162.797852 362.307343,174.648590 
	C360.656830,180.267227 359.864532,186.137939 358.614502,192.230194 
	C354.082855,189.064728 349.789215,185.973114 345.402283,183.020081 
	C335.835297,176.580185 328.851501,177.953766 322.794617,187.600800 
	C319.913910,192.189133 317.377167,196.993439 314.626495,201.801468 
	C310.447174,196.746475 306.563477,191.746201 302.352844,187.038376 
	C297.835602,181.987808 294.157227,181.791153 289.016296,186.214630 
	C287.189850,187.786179 286.151062,190.282455 284.306580,191.822113 
	C277.317505,197.655991 270.145508,203.270752 262.779175,209.178207 
	C258.266968,202.134552 253.885605,195.102982 249.305298,188.203491 
	C245.343018,182.234924 241.781158,181.470932 235.960419,185.401382 
	C228.989487,190.108459 222.173965,195.045715 215.846771,199.492752 
	C204.075592,187.336060 192.490555,175.394714 180.943848,163.416412 
	C179.561813,161.982712 178.377563,160.356720 177.119919,158.805054 
	C173.619415,154.486160 172.265640,147.900055 165.082062,147.446594 
	C164.710815,147.423141 164.404724,146.747849 164.024734,146.427780 
	C148.755249,133.566483 133.379364,120.829071 118.241005,107.815361 
	C107.371086,98.471024 94.221161,94.216164 80.674347,92.234360 
	C69.817635,90.646111 58.550972,91.707626 47.469574,91.850861 
	C36.429470,91.993553 28.726322,98.083778 23.128059,106.923622 
	C18.958508,113.507484 21.296103,126.207909 32.308601,128.719009 
	C38.841698,130.208694 45.296875,132.958450 51.154793,136.262619 
	C58.793739,140.571396 65.985634,145.748718 73.049774,150.984238 
	C86.420578,160.893906 99.755211,170.888840 110.131264,184.176910 
	C118.114983,194.401215 126.608231,204.259323 134.092285,214.834137 
	C143.572586,228.229599 154.021774,241.120682 159.836075,256.785400 
	C168.747971,280.795593 173.975327,305.680359 175.810898,331.141632 
	C177.797653,358.700043 178.901443,386.325134 180.129181,413.932770 
	C180.384399,419.671661 182.694092,423.672363 187.180664,426.905762 
	C192.648163,430.846222 198.883484,429.987244 204.998138,430.203644 
	C210.053467,430.382568 214.077744,428.257172 216.040710,423.912506 
	C218.259232,419.002197 219.605316,413.657440 220.935120,408.401459 
	C221.701645,405.371735 221.476959,402.099487 222.131744,399.028839 
	C222.372543,397.899567 223.762802,396.327759 224.796387,396.186768 
	C227.662186,395.795807 230.616150,396.051270 233.302170,396.051270 
	C233.866776,402.261688 233.904572,407.791077 234.962311,413.117981 
	C236.564972,421.188995 242.957153,425.814880 252.512726,426.722931 
	C261.086426,427.537720 265.699097,425.366974 268.816833,416.893646 
	C271.749664,408.922791 273.264557,400.430176 275.610474,391.366852 
	C285.525940,388.094116 386.689941,388.721924 398.146820,394.426575 
	C398.146820,396.401306 397.974731,398.567139 398.183899,400.695526 
	C398.577301,404.698669 399.901520,408.668610 404.107635,409.731049 
	C418.021271,413.245453 431.020721,409.023834 435.433167,393.227783 
	C436.127625,390.741760 435.920532,388.003906 436.191254,384.620819 
	C442.536407,384.620819 448.897125,384.620819 455.684631,384.620819 
	C455.535187,386.363312 455.268433,388.298309 455.222992,390.238464 
	C455.115570,394.829102 453.885773,399.671600 457.541565,403.574829 
	C463.155762,409.569092 484.788727,408.667999 489.844879,402.200562 
	C494.520966,396.219330 494.236145,389.242432 492.301117,382.659760 
	C489.177551,372.033783 493.299530,363.035126 498.870270,355.187805 
	C503.159760,349.145447 506.766357,343.287598 507.623596,336.041992 
	C508.736816,326.632568 509.800629,317.185577 510.161774,307.727112 
	C510.593842,296.410919 510.040466,285.059875 510.329193,273.734558 
	C510.566711,264.418304 509.539368,254.470657 512.474854,245.978973 
	C515.891296,236.096115 515.633667,226.454163 516.148254,216.579391 
	C516.814270,203.799698 517.608215,191.026657 518.349365,178.250900 
	C518.848938,169.640213 519.352478,161.029770 519.889893,151.807663 
	C529.173096,151.089020 538.216370,151.164612 546.936096,149.522369 
	C558.463501,147.351318 570.001404,144.581085 581.042480,140.676285 
	C591.085388,137.124542 595.595154,127.954971 599.803955,118.525459 
	C605.736023,105.235016 603.868958,93.286148 594.929443,82.687042 
	C581.066956,66.250992 563.687378,54.040066 542.408936,50.568733 
	C531.738525,48.827980 529.363770,43.742958 528.311584,35.290462 
	C528.208740,34.463997 528.359863,33.429993 527.920166,32.852180 
	C526.136169,30.507664 524.588745,27.372169 522.163879,26.275614 
	C518.881836,24.791399 516.030945,27.334406 514.595398,30.389444 
	C512.413940,35.031796 510.734558,39.908039 508.634216,44.591797 
	C508.054810,45.883869 506.953308,47.349838 505.723785,47.874416 
	C499.068481,50.713879 492.203491,53.073509 485.610687,56.042419 
	C482.750610,57.330379 480.723694,57.539810 478.626404,55.033409 
	C475.127167,50.851547 471.327942,46.908169 468.002441,42.596428 
	C463.493500,36.750313 458.227356,36.723736 454.561737,43.030144 
	C451.768463,47.835770 449.312286,52.837353 446.187592,58.729542 
	C440.671478,56.307938 434.693390,54.331238 429.474915,51.120121 
	C426.854706,49.507835 425.040039,47.114700 421.725494,48.714264 
	C418.450348,50.294811 417.923553,53.206192 418.724945,56.361771 
	C420.603302,63.758316 422.391083,71.192665 424.676331,78.466965 
	C427.014587,85.910179 430.092072,93.119507 432.490143,100.546120 
	C434.481232,106.712212 431.896515,110.372368 425.602631,110.954063 
	C420.792999,111.398598 415.977936,111.826393 411.155853,112.086151 
	C400.527802,112.658661 398.619232,115.404739 401.947998,125.641319 
	C402.409790,127.061462 402.973938,128.448898 403.507812,129.844925 
	C407.542480,140.395477 411.581390,150.944382 415.074768,161.957581 
	C414.903839,162.123657 414.732880,162.289749 413.743195,162.521042 
z"/>
<path fill="#E7E7E3" opacity="1.000000" stroke="none" 
	d="
M415.619019,161.493790 
	C411.581390,150.944382 407.542480,140.395477 403.507812,129.844925 
	C402.973938,128.448898 402.409790,127.061462 401.947998,125.641319 
	C398.619232,115.404739 400.527802,112.658661 411.155853,112.086151 
	C415.977936,111.826393 420.792999,111.398598 425.602631,110.954063 
	C431.896515,110.372368 434.481232,106.712212 432.490143,100.546120 
	C430.092072,93.119507 427.014587,85.910179 424.676331,78.466965 
	C422.391083,71.192665 420.603302,63.758316 418.724945,56.361771 
	C417.923553,53.206192 418.450348,50.294811 421.725494,48.714264 
	C425.040039,47.114700 426.854706,49.507835 429.474915,51.120121 
	C434.693390,54.331238 440.671478,56.307938 446.187592,58.729542 
	C449.312286,52.837353 451.768463,47.835770 454.561737,43.030144 
	C458.227356,36.723736 463.493500,36.750313 468.002441,42.596428 
	C471.327942,46.908169 475.127167,50.851547 478.626404,55.033409 
	C480.723694,57.539810 482.750610,57.330379 485.610687,56.042419 
	C492.203491,53.073509 499.068481,50.713879 505.723785,47.874416 
	C506.953308,47.349838 508.054810,45.883869 508.634216,44.591797 
	C510.734558,39.908039 512.413940,35.031796 514.595398,30.389444 
	C516.030945,27.334406 518.881836,24.791399 522.163879,26.275614 
	C524.588745,27.372169 526.136169,30.507664 527.920166,32.852180 
	C528.359863,33.429993 528.208740,34.463997 528.311584,35.290462 
	C529.363770,43.742958 531.738525,48.827980 542.408936,50.568733 
	C563.687378,54.040066 581.066956,66.250992 594.929443,82.687042 
	C603.868958,93.286148 605.736023,105.235016 599.803955,118.525459 
	C595.595154,127.954971 591.085388,137.124542 581.042480,140.676285 
	C570.001404,144.581085 558.463501,147.351318 546.936096,149.522369 
	C538.216370,151.164612 529.173096,151.089020 519.889893,151.807663 
	C519.352478,161.029770 518.848938,169.640213 518.349365,178.250900 
	C517.608215,191.026657 516.814270,203.799698 516.148254,216.579391 
	C515.633667,226.454163 515.891296,236.096115 512.474854,245.978973 
	C509.539368,254.470657 510.566711,264.418304 510.329193,273.734558 
	C510.040466,285.059875 510.593842,296.410919 510.161774,307.727112 
	C509.800629,317.185577 508.736816,326.632568 507.623596,336.041992 
	C506.766357,343.287598 503.159760,349.145447 498.870270,355.187805 
	C493.299530,363.035126 489.177551,372.033783 492.301117,382.659760 
	C494.236145,389.242432 494.520966,396.219330 489.844879,402.200562 
	C484.788727,408.667999 463.155762,409.569092 457.541565,403.574829 
	C453.885773,399.671600 455.115570,394.829102 455.222992,390.238464 
	C455.268433,388.298309 455.535187,386.363312 455.684631,384.620819 
	C448.897125,384.620819 442.536407,384.620819 436.191254,384.620819 
	C435.920532,388.003906 436.127625,390.741760 435.433167,393.227783 
	C431.020721,409.023834 418.021271,413.245453 404.107635,409.731049 
	C399.901520,408.668610 398.577301,404.698669 398.183899,400.695526 
	C397.974731,398.567139 398.146820,396.401306 398.146820,394.426575 
	C386.689941,388.721924 285.525940,388.094116 275.610474,391.366852 
	C273.264557,400.430176 271.749664,408.922791 268.816833,416.893646 
	C265.699097,425.366974 261.086426,427.537720 252.512726,426.722931 
	C242.957153,425.814880 236.564972,421.188995 234.962311,413.117981 
	C233.904572,407.791077 233.866776,402.261688 233.302170,396.051270 
	C230.616150,396.051270 227.662186,395.795807 224.796387,396.186768 
	C223.762802,396.327759 222.372543,397.899567 222.131744,399.028839 
	C221.476959,402.099487 221.701645,405.371735 220.935120,408.401459 
	C219.605316,413.657440 218.259232,419.002197 216.040710,423.912506 
	C214.077744,428.257172 210.053467,430.382568 204.998138,430.203644 
	C198.883484,429.987244 192.648163,430.846222 187.180664,426.905762 
	C182.694092,423.672363 180.384399,419.671661 180.129181,413.932770 
	C178.901443,386.325134 177.797653,358.700043 175.810898,331.141632 
	C173.975327,305.680359 168.747971,280.795593 159.836075,256.785400 
	C154.021774,241.120682 143.572586,228.229599 134.092285,214.834137 
	C126.608231,204.259323 118.114983,194.401215 110.131264,184.176910 
	C99.755211,170.888840 86.420578,160.893906 73.049774,150.984238 
	C65.985634,145.748718 58.793739,140.571396 51.154793,136.262619 
	C45.296875,132.958450 38.841698,130.208694 32.308601,128.719009 
	C21.296103,126.207909 18.958508,113.507484 23.128059,106.923622 
	C28.726322,98.083778 36.429470,91.993553 47.469574,91.850861 
	C58.550972,91.707626 69.817635,90.646111 80.674347,92.234360 
	C94.221161,94.216164 107.371086,98.471024 118.241005,107.815361 
	C133.379364,120.829071 148.755249,133.566483 164.024734,146.427780 
	C164.404724,146.747849 164.710815,147.423141 165.082062,147.446594 
	C172.265640,147.900055 173.619415,154.486160 177.119919,158.805054 
	C178.377563,160.356720 179.561813,161.982712 180.943848,163.416412 
	C192.490555,175.394714 204.075592,187.336060 215.846771,199.492752 
	C222.173965,195.045715 228.989487,190.108459 235.960419,185.401382 
	C241.781158,181.470932 245.343018,182.234924 249.305298,188.203491 
	C253.885605,195.102982 258.266968,202.134552 262.779175,209.178207 
	C270.145508,203.270752 277.317505,197.655991 284.306580,191.822113 
	C286.151062,190.282455 287.189850,187.786179 289.016296,186.214630 
	C294.157227,181.791153 297.835602,181.987808 302.352844,187.038376 
	C306.563477,191.746201 310.447174,196.746475 314.626495,201.801468 
	C317.377167,196.993439 319.913910,192.189133 322.794617,187.600800 
	C328.851501,177.953766 335.835297,176.580185 345.402283,183.020081 
	C349.789215,185.973114 354.082855,189.064728 358.614502,192.230194 
	C359.864532,186.137939 360.656830,180.267227 362.307343,174.648590 
	C365.788605,162.797852 369.100555,159.932022 381.463013,160.055389 
	C392.230194,160.162827 402.983673,161.645859 414.364502,162.642975 
	C415.196899,162.341202 415.407959,161.917496 415.619019,161.493790 
M95.984558,154.026993 
	C95.984558,154.026993 95.784264,154.020065 95.970230,154.581009 
	C96.302208,154.772873 96.634178,154.964752 97.246109,155.751724 
	C109.382492,168.869934 121.518875,181.988144 133.834045,195.688232 
	C134.226990,196.136414 134.619934,196.584579 135.028152,196.986725 
	C135.028152,196.986725 134.980820,196.976196 135.068527,197.542419 
	C135.356888,197.772797 135.645248,198.003174 135.920975,198.094650 
	C135.920975,198.094650 135.783508,198.118256 135.968109,198.787323 
	C139.589920,203.271637 143.211731,207.755951 146.870697,212.088120 
	C146.870697,212.088120 146.715836,212.064758 146.856354,212.660400 
	C147.240723,213.115021 147.625092,213.569656 148.020782,213.991882 
	C148.020782,213.991882 147.988068,213.981430 148.064514,214.575089 
	C148.345901,214.840088 148.627274,215.105072 149.022537,216.031326 
	C154.730591,225.581665 160.661530,235.007156 166.096527,244.710464 
	C175.136551,260.849945 178.988632,278.667328 182.093063,296.669312 
	C183.780792,306.456177 185.329422,316.267090 186.892960,326.895081 
	C187.179260,328.505646 187.465576,330.116241 187.466187,332.278107 
	C187.660126,332.862762 187.854080,333.447449 187.903381,334.947021 
	C188.217224,340.222717 188.538620,345.498016 188.843491,350.774231 
	C189.868103,368.506104 190.886810,386.238312 191.524689,404.663208 
	C191.438263,406.804840 191.351822,408.946472 191.065628,411.818817 
	C191.347992,413.221649 191.630356,414.624451 192.096863,416.794586 
	C194.946075,417.541382 197.757385,418.678131 200.651840,418.959442 
	C208.320892,419.704712 209.445084,418.365875 209.944733,410.799622 
	C210.357513,404.548859 211.332794,398.334534 212.081421,392.106812 
	C212.500015,388.624664 214.301224,386.296875 217.923630,385.989197 
	C223.683899,385.499969 229.484314,384.712097 235.223740,384.982910 
	C240.168442,385.216125 244.330612,391.128693 244.078018,396.072296 
	C243.950775,398.562225 243.495682,401.110718 243.861755,403.530975 
	C244.294815,406.394226 244.689072,409.883850 246.494614,411.759766 
	C248.683929,414.034332 252.217789,415.408936 255.405472,416.126740 
	C256.614349,416.398987 259.152771,414.052612 259.881195,412.376526 
	C260.887573,410.060822 260.755066,407.250153 261.667725,403.990234 
	C261.815063,400.044830 262.171753,396.093658 262.062714,392.155365 
	C261.880066,385.558990 263.490814,383.045288 270.757629,380.842010 
	C275.028320,380.231445 279.287659,379.197327 283.571625,379.082855 
	C303.172180,378.559143 322.746185,376.894409 342.388672,379.589905 
	C349.978424,380.631439 357.898865,379.027771 365.666595,379.065216 
	C376.032562,379.115112 386.477783,380.024658 395.913513,384.420776 
	C399.608795,386.142365 404.994171,387.449066 405.883881,392.980011 
	C406.581177,397.314697 408.617157,400.138092 413.338623,399.997620 
	C419.190033,399.823608 425.104553,395.561035 425.031952,391.401520 
	C424.968384,387.758423 424.186951,384.132416 424.025238,380.485443 
	C423.782745,375.016602 425.723358,373.474304 431.256195,374.272919 
	C432.708069,374.482483 434.200317,374.655640 435.655212,374.559784 
	C442.868591,374.084473 450.069031,373.367584 457.287872,373.041565 
	C460.591248,372.892395 462.908112,374.445374 463.443359,378.186035 
	C464.120422,382.917755 465.342499,387.574188 465.956360,392.311462 
	C466.496552,396.480011 469.413025,398.947540 473.445068,397.858765 
	C475.021606,397.433075 476.460571,396.497772 478.755737,395.905640 
	C484.386993,393.959106 481.759338,389.456635 481.532806,386.000122 
	C481.205292,381.001831 480.169861,376.049896 479.225708,371.125610 
	C479.225708,371.125610 479.295502,371.330048 479.734375,370.900513 
	C479.904449,370.316925 480.074524,369.733307 480.930664,368.909668 
	C481.936401,366.389496 483.290039,363.946716 483.871643,361.332214 
	C484.911560,356.657379 485.671021,352.032593 489.899811,348.861572 
	C490.963959,348.063660 491.375946,346.396118 492.714111,344.790649 
	C494.158020,338.864105 495.601929,332.937531 497.328217,326.263702 
	C497.833252,323.157593 498.277069,320.039886 498.860260,316.948547 
	C499.460754,313.765472 498.720581,311.474243 495.062836,310.943085 
	C495.062836,310.943085 495.241089,310.785034 495.013397,310.038940 
	C494.680603,308.479156 493.984894,306.898102 494.074921,305.363129 
	C494.590424,296.576050 495.292664,287.799896 496.139008,278.361725 
	C496.107941,277.906555 496.076843,277.451416 496.348236,276.445007 
	C496.395538,275.618713 496.442810,274.792450 496.767670,273.257355 
	C496.776123,272.501068 496.784546,271.744751 496.998383,270.099762 
	C498.104767,253.100906 499.211151,236.102036 500.661316,218.657059 
	C500.698334,218.101257 500.735352,217.545441 501.022308,216.191956 
	C504.047607,191.147598 507.072937,166.103256 510.004913,141.028336 
	C510.004913,141.028336 510.082153,141.089081 510.678833,140.676941 
	C514.100098,135.940033 518.835938,138.785492 523.657898,138.802277 
	C524.106934,138.806290 524.555969,138.810287 525.731628,139.059814 
	C526.490356,139.047684 527.249146,139.035553 528.784180,139.251266 
	C529.853882,139.187439 530.923584,139.123611 532.892517,139.294266 
	C540.483704,138.275253 548.074829,137.256256 556.135620,136.298889 
	C556.456421,136.248505 556.741028,136.118698 557.696350,135.972321 
	C559.540222,134.347260 561.384033,132.722198 563.646973,131.104935 
	C563.646973,131.104935 564.007507,130.890991 564.510559,130.958725 
	C564.667053,130.894440 564.823547,130.830139 565.732666,130.868881 
	C566.490173,130.839996 567.247620,130.811111 568.858215,130.997223 
	C570.900940,130.931763 572.943665,130.866318 575.566711,130.828781 
	C576.028442,130.492386 576.490173,130.156006 577.457336,129.780243 
	C577.668396,129.528259 577.879456,129.276276 578.536011,128.994232 
	C578.853455,128.916504 579.066345,128.723465 579.799561,128.234436 
	C580.597046,127.542664 581.394531,126.850883 582.111511,126.136826 
	C582.111511,126.136826 582.124939,126.219246 582.661499,126.037819 
	C582.831299,125.712044 583.001160,125.386269 583.700867,124.790314 
	C584.162354,123.927254 584.623901,123.064194 585.660889,121.831612 
	C586.137390,120.571861 586.613831,119.312111 587.008301,118.038963 
	C587.008301,118.038963 587.070068,118.094589 587.626648,117.649132 
	C588.441162,115.662239 589.173279,113.636635 590.084961,111.695358 
	C593.480164,104.465599 592.066895,97.939430 587.133484,91.264702 
	C586.466614,90.493736 585.799805,89.722778 584.992676,88.314980 
	C583.979736,87.238129 582.966797,86.161278 581.972046,85.012421 
	C581.972046,85.012421 581.908142,85.050362 581.658142,84.490822 
	C580.831177,83.918152 580.004211,83.345482 579.156433,82.857552 
	C579.156433,82.857552 579.241028,82.835861 579.030029,82.324463 
	C578.698547,82.188896 578.367126,82.053329 577.793213,81.453896 
	C577.478455,81.319962 577.163635,81.186020 576.514038,80.492020 
	C574.362427,78.948624 572.210876,77.405228 569.745300,75.326157 
	C568.544800,74.530289 567.344360,73.734413 565.831543,72.325951 
	C561.559937,70.219147 557.288391,68.112350 552.821045,65.764618 
	C552.821045,65.764618 552.511841,65.790901 552.162537,65.305946 
	C551.778809,65.239876 551.395142,65.173805 550.683167,64.868111 
	C550.683167,64.868111 550.276855,64.879440 549.781372,64.328300 
	C548.246033,63.738380 546.745117,63.027718 545.169678,62.578342 
	C535.735413,59.887245 526.224365,59.688393 516.079956,61.954437 
	C515.382507,62.308197 514.685120,62.661957 513.070312,62.884762 
	C508.056061,63.341663 503.041779,63.798561 497.467926,64.222298 
	C496.980896,64.485512 496.493835,64.748734 495.353638,64.953552 
	C494.804749,65.255165 494.255859,65.556778 493.008881,65.924805 
	C489.991699,68.101379 487.038696,70.376266 483.927063,72.408249 
	C482.600800,73.274353 480.935059,74.141289 479.437683,74.117584 
	C476.207092,74.066429 474.428467,72.614082 474.661041,68.758133 
	C474.938019,64.165573 471.744354,61.093319 466.394867,61.058502 
	C465.150970,61.050407 463.462219,64.275421 462.712128,66.286560 
	C460.813934,71.375877 459.325470,76.618469 457.699310,81.807922 
	C457.576965,82.198296 457.680664,82.655396 457.650665,83.079453 
	C457.403076,86.577713 458.119537,90.522339 456.746887,93.504601 
	C442.357056,124.768761 433.578186,157.891830 424.130493,190.790588 
	C423.595551,192.653290 424.750092,194.946259 424.799713,197.046509 
	C424.854340,199.355789 425.431671,202.953339 424.242828,203.781693 
	C416.128479,209.435547 411.976685,222.597702 398.238953,218.054214 
	C397.102051,217.678192 395.624786,218.343353 394.303833,218.509979 
	C376.793793,220.718536 359.312866,223.201920 341.765961,225.063477 
	C317.772888,227.608902 293.576324,228.670792 269.757782,232.284927 
	C251.659912,235.031036 234.697067,233.196335 217.969025,226.843002 
	C214.586197,225.558197 211.728653,222.696808 208.875351,220.272263 
	C206.571167,218.314316 205.009933,215.257339 202.475449,213.834274 
	C191.919998,207.907547 184.378082,199.084015 178.648590,188.841141 
	C169.141266,171.844406 156.434906,157.761688 141.560471,145.435944 
	C128.263931,134.417740 115.049622,123.299126 101.651657,112.406075 
	C100.009621,111.071037 97.478012,110.780754 95.314438,110.160492 
	C94.430061,109.906952 93.187935,110.425598 92.515564,109.979507 
	C82.173714,103.117989 70.194313,105.135971 58.975971,104.566658 
	C51.120216,104.167999 43.049152,107.159889 35.171871,109.045403 
	C34.109020,109.299805 33.132278,111.903435 33.012833,113.486938 
	C32.915398,114.778641 33.819221,116.883278 34.871670,117.385391 
	C37.970192,118.863625 41.508625,119.417542 44.612354,120.887543 
	C52.108913,124.438080 59.456322,128.303543 67.075493,132.539581 
	C67.397095,132.675217 67.718697,132.810852 68.002937,133.001221 
	C68.002937,133.001221 68.046349,132.949020 68.419098,133.506210 
	C77.235420,140.079346 86.051750,146.652466 94.911896,153.073730 
	C94.911896,153.073730 94.757530,153.039810 94.949287,153.622711 
	C95.291191,153.824203 95.633087,154.025681 95.984558,154.026993 
M383.061188,204.700333 
	C389.249512,202.338699 395.374146,199.790100 401.640289,197.656998 
	C412.435547,193.982056 416.795685,185.314529 420.442291,174.283981 
	C407.489624,173.184967 395.305481,171.998978 383.096466,171.186905 
	C377.897675,170.841080 373.641998,172.547073 373.007080,178.749435 
	C372.012634,188.463791 370.962860,198.172485 369.858704,208.620117 
	C374.704956,207.190338 378.506531,206.068756 383.061188,204.700333 
M330.817230,196.268250 
	C327.822540,202.224075 324.827850,208.179916 321.352661,215.091415 
	C335.656952,213.432404 348.657990,211.924530 361.659027,210.416672 
	C361.711792,209.925049 361.764557,209.433441 361.817322,208.941818 
	C354.712799,203.785446 347.648773,198.571960 340.490692,193.491043 
	C334.936066,189.548294 334.883850,189.621872 330.817230,196.268250 
M243.551651,220.971298 
	C247.458084,220.715958 251.364517,220.460632 256.130981,220.149078 
	C250.669144,211.542938 245.722397,203.748383 240.593063,195.666122 
	C234.616287,200.069977 229.011444,204.199768 224.037064,207.865021 
	C223.825333,211.292007 223.659714,213.972672 223.441315,217.507492 
	C229.648605,218.637177 236.128418,219.816452 243.551651,220.971298 
M298.311432,199.883957 
	C297.613037,198.799637 296.914673,197.715317 296.283356,196.735107 
	C287.476440,203.919296 279.518433,210.410995 271.560455,216.902710 
	C271.790527,217.350845 272.020630,217.798981 272.250732,218.247101 
	C283.729706,217.518341 295.208649,216.789581 307.981567,215.978653 
	C306.832642,212.941696 306.342621,210.610504 305.147430,208.726669 
	C303.292450,205.802734 300.957153,203.183517 298.311432,199.883957 
M417.891235,134.671417 
	C419.850128,139.819550 421.809052,144.967697 423.767944,150.115845 
	C424.252747,150.077957 424.737549,150.040054 425.222382,150.002167 
	C426.288544,140.834732 427.354736,131.667313 428.460632,122.158409 
	C423.052551,122.682228 418.416260,123.131294 413.219910,123.634598 
	C414.889893,127.600136 416.230652,130.783875 417.891235,134.671417 
M433.497070,66.196228 
	C434.764343,71.239685 436.031586,76.283134 437.298828,81.326591 
	C437.960815,81.325195 438.622772,81.323807 439.284760,81.322411 
	C440.695312,77.331429 442.105835,73.340446 443.556030,69.237366 
	C439.917572,68.101074 437.097565,67.220390 433.497070,66.196228 
z"/>
<path fill="#2F6002" opacity="1.000000" stroke="none" 
	d="
M531.993286,139.059784 
	C530.923584,139.123611 529.853882,139.187439 528.199951,138.924011 
	C526.745483,138.669281 525.875244,138.741791 525.005005,138.814301 
	C524.555969,138.810287 524.106934,138.806290 523.185791,138.359985 
	C520.406982,137.307281 518.118530,136.291275 515.789001,136.186127 
	C512.672424,136.045441 509.921631,137.064789 510.082153,141.089081 
	C510.082153,141.089081 510.004913,141.028336 509.720947,141.208740 
	C508.436646,145.074692 506.699463,148.733429 506.564117,152.450485 
	C505.996307,168.041168 505.539825,183.582809 502.223633,198.947525 
	C500.961884,204.793655 501.211548,210.965973 500.772400,216.989639 
	C500.735352,217.545441 500.698334,218.101257 500.182922,219.116394 
	C498.476532,229.993500 496.876312,240.385544 496.154999,250.838272 
	C495.694702,257.508575 496.535522,264.268646 496.792969,270.988464 
	C496.784546,271.744751 496.776123,272.501068 496.367798,273.718231 
	C495.993866,275.118164 496.019806,276.057190 496.045776,276.996246 
	C496.076843,277.451416 496.107941,277.906555 495.770813,278.964752 
	C494.971375,280.625275 494.243500,281.658875 494.156219,282.744019 
	C493.510986,290.768921 492.858948,298.799347 492.573059,306.840973 
	C492.527527,308.122437 494.305939,309.468719 495.241089,310.785034 
	C495.241089,310.785034 495.062836,310.943085 495.148224,311.239868 
	C495.518341,316.687653 495.803070,321.838654 496.012177,327.366760 
	C494.653564,333.538666 493.370605,339.333405 492.087616,345.128174 
	C491.375946,346.396118 490.963959,348.063660 489.899811,348.861572 
	C485.671021,352.032593 484.911560,356.657379 483.871643,361.332214 
	C483.290039,363.946716 481.936401,366.389496 480.329102,369.213684 
	C479.583527,370.121826 479.439514,370.725922 479.295502,371.330048 
	C479.295502,371.330048 479.225708,371.125610 479.008057,371.353699 
	C478.601227,373.324554 478.285614,375.064453 478.245697,376.810638 
	C478.101105,383.137482 478.049103,389.466431 477.962189,395.794556 
	C476.460571,396.497772 475.021606,397.433075 473.445068,397.858765 
	C469.413025,398.947540 466.496552,396.480011 465.956360,392.311462 
	C465.342499,387.574188 464.120422,382.917755 463.443359,378.186035 
	C462.908112,374.445374 460.591248,372.892395 457.287872,373.041565 
	C450.069031,373.367584 442.868591,374.084473 435.655212,374.559784 
	C434.200317,374.655640 432.708069,374.482483 431.256195,374.272919 
	C425.723358,373.474304 423.782745,375.016602 424.025238,380.485443 
	C424.186951,384.132416 424.968384,387.758423 425.031952,391.401520 
	C425.104553,395.561035 419.190033,399.823608 413.338623,399.997620 
	C408.617157,400.138092 406.581177,397.314697 405.883881,392.980011 
	C404.994171,387.449066 399.608795,386.142365 395.913513,384.420776 
	C386.477783,380.024658 376.032562,379.115112 365.666595,379.065216 
	C357.898865,379.027771 349.978424,380.631439 342.388672,379.589905 
	C322.746185,376.894409 303.172180,378.559143 283.571625,379.082855 
	C279.287659,379.197327 275.028320,380.231445 270.028717,380.619171 
	C261.406219,379.483795 259.896545,380.636292 260.038818,388.309723 
	C260.139923,393.761719 260.735413,399.204529 261.110291,404.651459 
	C260.755066,407.250153 260.887573,410.060822 259.881195,412.376526 
	C259.152771,414.052612 256.614349,416.398987 255.405472,416.126740 
	C252.217789,415.408936 248.683929,414.034332 246.494614,411.759766 
	C244.689072,409.883850 244.294815,406.394226 243.861755,403.530975 
	C243.495682,401.110718 243.950775,398.562225 244.078018,396.072296 
	C244.330612,391.128693 240.168442,385.216125 235.223740,384.982910 
	C229.484314,384.712097 223.683899,385.499969 217.923630,385.989197 
	C214.301224,386.296875 212.500015,388.624664 212.081421,392.106812 
	C211.332794,398.334534 210.357513,404.548859 209.944733,410.799622 
	C209.445084,418.365875 208.320892,419.704712 200.651840,418.959442 
	C197.757385,418.678131 194.946075,417.541382 192.023407,416.045349 
	C191.721756,413.893463 191.493576,412.490784 191.265396,411.088104 
	C191.351822,408.946472 191.438263,406.804840 191.981857,404.001648 
	C192.610489,402.707489 192.943298,402.071503 192.929825,401.442902 
	C192.603485,386.237976 192.586288,371.014404 191.733917,355.837982 
	C191.323120,348.523438 189.326538,341.297943 188.048035,334.032104 
	C187.854080,333.447449 187.660126,332.862762 187.672180,331.564026 
	C187.565720,329.255707 187.253250,327.661407 186.940781,326.067139 
	C185.329422,316.267090 183.780792,306.456177 182.093063,296.669312 
	C178.988632,278.667328 175.136551,260.849945 166.096527,244.710464 
	C160.661530,235.007156 154.730591,225.581665 148.868271,215.434265 
	C148.472015,214.551956 148.230042,214.266693 147.988068,213.981430 
	C147.988068,213.981430 148.020782,213.991882 147.958771,213.702820 
	C147.503113,212.964081 147.109467,212.514420 146.715836,212.064758 
	C146.715836,212.064758 146.870697,212.088120 146.893524,211.767181 
	C146.153946,204.540680 142.084961,200.397079 135.783508,198.118256 
	C135.783508,198.118256 135.920975,198.094650 135.826828,197.912888 
	C135.482056,197.479477 135.231445,197.227844 134.980820,196.976196 
	C134.980820,196.976196 135.028152,196.986725 134.957581,196.702820 
	C134.476425,195.981400 134.065842,195.543884 133.655258,195.106354 
	C121.518875,181.988144 109.382492,168.869934 96.954262,155.221771 
	C96.369698,154.467896 96.076981,154.243973 95.784264,154.020065 
	C95.784264,154.020065 95.984558,154.026993 95.834686,153.874222 
	C95.375725,153.494232 95.066628,153.267029 94.757530,153.039810 
	C94.757530,153.039810 94.911896,153.073730 94.930359,152.772858 
	C94.084694,150.952393 93.543861,149.060104 92.298607,147.979828 
	C87.711418,144.000427 83.117508,139.947174 78.070534,136.610901 
	C75.183739,134.702591 71.416939,134.125488 68.046349,132.949020 
	C68.046349,132.949020 68.002937,133.001221 67.853088,132.789490 
	C67.446297,132.363419 67.166504,132.184830 66.863869,132.042023 
	C59.456322,128.303543 52.108913,124.438080 44.612354,120.887543 
	C41.508625,119.417542 37.970192,118.863625 34.871670,117.385391 
	C33.819221,116.883278 32.915398,114.778641 33.012833,113.486938 
	C33.132278,111.903435 34.109020,109.299805 35.171871,109.045403 
	C43.049152,107.159889 51.120216,104.167999 58.975971,104.566658 
	C70.194313,105.135971 82.173714,103.117989 92.515564,109.979507 
	C93.187935,110.425598 94.430061,109.906952 95.314438,110.160492 
	C97.478012,110.780754 100.009621,111.071037 101.651657,112.406075 
	C115.049622,123.299126 128.263931,134.417740 141.560471,145.435944 
	C156.434906,157.761688 169.141266,171.844406 178.648590,188.841141 
	C184.378082,199.084015 191.919998,207.907547 202.475449,213.834274 
	C205.009933,215.257339 206.571167,218.314316 208.875351,220.272263 
	C211.728653,222.696808 214.586197,225.558197 217.969025,226.843002 
	C234.697067,233.196335 251.659912,235.031036 269.757782,232.284927 
	C293.576324,228.670792 317.772888,227.608902 341.765961,225.063477 
	C359.312866,223.201920 376.793793,220.718536 394.303833,218.509979 
	C395.624786,218.343353 397.102051,217.678192 398.238953,218.054214 
	C411.976685,222.597702 416.128479,209.435547 424.242828,203.781693 
	C425.431671,202.953339 424.854340,199.355789 424.799713,197.046509 
	C424.750092,194.946259 423.595551,192.653290 424.130493,190.790588 
	C433.578186,157.891830 442.357056,124.768761 456.746887,93.504601 
	C458.119537,90.522339 457.403076,86.577713 457.650665,83.079453 
	C457.680664,82.655396 457.576965,82.198296 457.699310,81.807922 
	C459.325470,76.618469 460.813934,71.375877 462.712128,66.286560 
	C463.462219,64.275421 465.150970,61.050407 466.394867,61.058502 
	C471.744354,61.093319 474.938019,64.165573 474.661041,68.758133 
	C474.428467,72.614082 476.207092,74.066429 479.437683,74.117584 
	C480.935059,74.141289 482.600800,73.274353 483.927063,72.408249 
	C487.038696,70.376266 489.991699,68.101379 493.678528,65.904716 
	C494.901031,65.593735 495.453918,65.302849 496.006805,65.011955 
	C496.493835,64.748734 496.980896,64.485512 498.073700,64.429718 
	C503.782196,64.096672 508.884949,63.556198 513.987671,63.015720 
	C514.685120,62.661957 515.382507,62.308197 516.860046,61.943916 
	C528.668518,61.259514 539.511841,62.635880 550.276855,64.879440 
	C550.276855,64.879440 550.683167,64.868111 551.059998,65.175568 
	C551.795166,65.585655 552.153503,65.688278 552.511841,65.790901 
	C552.511841,65.790901 552.821045,65.764618 552.985046,66.237579 
	C557.480652,68.786545 561.812256,70.862549 566.143860,72.938553 
	C567.344360,73.734413 568.544800,74.530289 569.941711,75.949814 
	C572.375061,78.066330 574.611938,79.559196 576.848877,81.052078 
	C577.163635,81.186020 577.478455,81.319962 578.058594,81.905266 
	C578.629639,82.516380 578.935364,82.676125 579.241028,82.835861 
	C579.241028,82.835861 579.156433,82.857552 579.195190,83.154282 
	C580.125366,83.984123 581.016724,84.517235 581.908142,85.050354 
	C581.908142,85.050362 581.972046,85.012421 581.979736,85.406624 
	C583.035950,86.851151 584.084473,87.901482 585.132996,88.951813 
	C585.799805,89.722778 586.466614,90.493736 586.977173,91.771423 
	C586.740662,92.739883 586.426819,93.355484 586.614624,93.640663 
	C590.549316,99.615135 591.119995,105.746819 588.040100,112.317017 
	C587.241699,114.020172 587.368286,116.156967 587.070068,118.094589 
	C587.070068,118.094589 587.008301,118.038963 586.695923,118.141968 
	C585.950867,119.563690 585.518127,120.882416 585.085388,122.201141 
	C584.623901,123.064194 584.162354,123.927254 583.196716,125.052536 
	C582.503357,125.616249 582.314148,125.917740 582.124939,126.219238 
	C582.124939,126.219246 582.111511,126.136826 581.774414,126.125168 
	C580.683105,126.880692 579.928894,127.647873 579.174683,128.415070 
	C579.066345,128.723465 578.853455,128.916504 578.083252,129.076874 
	C577.336426,129.309723 577.110229,129.529755 576.951843,129.819611 
	C576.490173,130.156006 576.028442,130.492386 574.969116,130.619278 
	C572.249329,130.533936 570.127258,130.658081 568.005127,130.782227 
	C567.247620,130.811111 566.490173,130.839996 565.243286,130.714737 
	C564.421570,130.465927 564.172729,130.576050 564.007507,130.890991 
	C564.007507,130.890991 563.646973,131.104935 563.070129,131.079010 
	C560.658630,132.671890 558.824036,134.290680 556.989380,135.909470 
	C556.741028,136.118698 556.456421,136.248505 555.391052,136.206940 
	C547.095398,137.096573 539.544373,138.078186 531.993286,139.059784 
M544.992615,128.006500 
	C544.992615,128.006500 544.940857,127.984840 545.387512,127.608589 
	C545.588562,127.072174 545.789612,126.535759 545.997559,125.998367 
	C545.997559,125.998367 545.995422,125.989334 546.707581,125.853760 
	C549.668152,123.286301 551.776611,120.592354 547.592957,116.754700 
	C547.385071,116.492676 547.177185,116.230644 546.784241,115.291809 
	C544.627441,113.029236 542.441467,111.371994 539.998718,115.003288 
	C539.998718,115.003288 539.960938,114.997612 539.236633,115.030777 
	C537.491272,117.023582 535.745972,119.016396 533.999390,120.998978 
	C533.999390,120.998978 534.009094,121.000992 533.160156,121.000267 
	C530.082703,121.283669 527.648926,120.666946 525.315552,118.095016 
	C522.650574,115.157532 519.104248,114.477280 515.946716,118.814041 
	C515.301697,119.875381 514.656677,120.936714 513.562073,122.470123 
	C513.709717,123.641701 513.857300,124.813271 514.275818,126.476166 
	C514.522400,126.979294 514.768921,127.482422 515.098328,128.566803 
	C515.421082,129.036697 515.743774,129.506592 516.005920,129.993607 
	C516.005920,129.993607 516.023621,129.933182 516.396973,130.384064 
	C516.935547,130.583038 517.474182,130.782013 518.004578,130.998123 
	C518.004578,130.998123 518.020508,130.979355 518.199402,131.671906 
	C520.159668,132.433990 522.119934,133.196060 524.553345,133.963654 
	C524.553345,133.963654 525.023499,134.017044 525.279358,134.739624 
	C529.896729,136.919556 534.231384,137.034927 538.000000,133.000000 
	C538.000000,133.000000 537.999512,132.997131 538.577393,132.912430 
	C539.052856,132.600235 539.528320,132.288025 540.008057,132.007278 
	C540.008057,132.007278 539.976868,132.001129 540.378113,131.753113 
	C540.630371,131.558472 540.833984,131.322021 541.298645,130.503693 
	C542.157898,129.992859 543.017151,129.482010 544.326416,128.726608 
	C544.544739,128.468246 544.763123,128.209900 544.992615,128.006500 
M306.993805,252.946243 
	C306.993805,252.946243 306.949127,252.934448 306.310883,253.133911 
	C305.869080,254.090881 305.427246,255.047852 304.945190,256.439545 
	C304.945190,256.439545 304.940552,256.876099 304.477844,256.944733 
	C304.477844,256.944733 304.012939,257.003052 303.505493,257.659607 
	C303.010834,267.097839 302.453125,276.533813 302.115326,285.977661 
	C302.080048,286.962799 303.347015,287.994537 304.473755,289.046478 
	C304.473755,289.046478 304.936523,289.099945 305.004211,289.827972 
	C305.708130,293.573395 307.926727,296.225067 311.748169,295.658936 
	C317.621063,294.788940 316.873413,289.844696 316.368439,284.026428 
	C319.027802,285.517883 320.902313,286.159943 322.223877,287.394104 
	C325.124695,290.103058 328.168732,291.132599 331.596008,288.788513 
	C334.635101,286.709930 334.908234,279.493866 332.549500,275.975739 
	C330.536652,272.973450 329.008942,269.644928 326.983093,266.652710 
	C324.500702,262.986298 321.723083,259.519775 318.803864,255.538361 
	C318.554352,255.313004 318.304840,255.087631 318.042358,254.424683 
	C318.042358,254.424683 317.985962,253.990540 317.747192,253.565063 
	C317.549072,253.298599 317.303009,253.088181 316.768036,252.548477 
	C316.576019,252.307343 316.342377,252.117340 315.642029,251.378769 
	C312.921692,249.380585 310.324188,249.092270 307.971954,251.945572 
	C307.971954,251.945572 307.958313,251.952255 307.535889,252.192215 
	C307.272278,252.394775 307.077759,252.650024 306.993805,252.946243 
M542.383423,94.643631 
	C544.782532,96.440399 547.107971,97.147018 549.892822,93.956047 
	C553.218262,91.008530 552.917114,88.009636 549.621887,84.392967 
	C547.552551,82.702217 545.566223,82.152893 543.131592,85.016129 
	C539.912048,87.659897 538.425293,90.527824 542.383423,94.643631 
M208.014282,283.761230 
	C208.020630,284.499359 208.026962,285.237457 207.324905,286.123535 
	C202.496811,290.192993 202.916992,294.304962 208.780426,297.801605 
	C215.462936,301.786652 222.879868,302.386536 230.472488,302.051849 
	C236.303162,301.794830 240.507935,299.425842 241.642487,295.375366 
	C243.119873,290.100891 240.012146,286.742798 236.305511,284.021698 
	C233.934692,282.281219 231.053024,281.208618 228.338943,279.971375 
	C225.469070,278.663147 222.371490,277.773651 219.690887,276.170349 
	C218.604111,275.520355 218.356644,273.467010 217.727264,272.052277 
	C219.253082,271.885345 220.776672,271.607391 222.305191,271.576935 
	C224.752197,271.528198 228.386414,272.643402 229.383102,271.463135 
	C231.013611,269.532288 231.563568,266.098511 231.334000,263.403931 
	C231.191299,261.728973 229.040222,259.808655 227.324753,258.761719 
	C222.063477,255.550766 214.907913,257.846008 209.385132,264.157104 
	C203.725922,270.624084 203.314835,276.414917 208.014282,283.761230 
M263.013184,258.442352 
	C259.523743,259.972595 255.844376,261.185547 252.601089,263.127014 
	C249.669434,264.881927 248.970520,268.035248 250.838470,270.971527 
	C252.524170,273.621307 255.148529,274.484619 258.229431,272.910248 
	C259.504120,272.258881 260.882904,271.811310 263.183838,270.877655 
	C264.375793,276.931671 266.349457,282.402618 266.242706,287.832642 
	C266.154907,292.299072 268.386780,294.422150 271.200134,296.172699 
	C272.643555,297.070831 275.583252,296.844391 277.179413,295.943665 
	C280.252563,294.209473 279.943665,291.043304 279.078674,287.948273 
	C278.274170,285.069611 277.734924,282.117859 277.030396,279.210022 
	C276.109863,275.410645 275.141632,271.622833 274.016266,267.118866 
	C278.798828,266.670227 282.903778,266.404602 286.972382,265.865051 
	C290.139374,265.445038 292.755920,264.140717 293.001312,260.370087 
	C293.227356,256.896179 291.195435,255.156616 288.188171,254.354294 
	C286.930023,254.018585 285.499329,253.868515 284.233002,254.101425 
	C277.388306,255.360336 270.570618,256.765778 263.013184,258.442352 
M411.813202,273.935638 
	C412.717072,269.738770 410.968292,266.781799 407.334412,264.912811 
	C403.017883,262.692719 398.608093,260.653931 394.093231,258.466125 
	C395.660980,257.578491 397.574707,257.151001 398.100189,256.056824 
	C399.101288,253.972290 399.904419,251.436234 399.640686,249.224670 
	C399.461456,247.721893 397.558777,245.685150 396.022064,245.217697 
	C390.679138,243.592377 383.152405,246.343094 380.391998,250.485046 
	C376.919342,255.695740 377.056946,260.745209 381.397949,265.331451 
	C377.780670,270.926971 377.579437,274.767944 381.513367,276.503723 
	C390.338379,280.397552 399.585205,279.897827 408.721680,277.401520 
	C409.822144,277.100861 410.597778,275.611359 411.813202,273.935638 
M336.678101,256.123199 
	C334.678772,260.402283 335.769470,264.692017 339.473389,264.668243 
	C345.880066,264.627228 345.791656,269.171387 346.976868,273.160309 
	C348.046844,276.761292 348.717957,280.648163 350.625519,283.758545 
	C351.508087,285.197693 355.083344,285.854950 357.114380,285.405426 
	C358.403564,285.120117 359.728455,282.204529 359.901184,280.362000 
	C360.125061,277.973785 359.364380,275.443634 358.773407,273.037018 
	C355.804443,260.946930 355.775330,260.954071 367.721497,257.795349 
	C367.882050,257.752899 368.047272,257.723907 368.203125,257.668396 
	C371.634155,256.445892 374.367310,254.347931 373.425690,250.397797 
	C372.488708,246.467148 368.995117,245.214081 365.514313,246.262726 
	C356.003967,249.127853 346.630066,252.445831 336.678101,256.123199 
M492.269073,96.981354 
	C493.196381,99.415169 493.750641,102.123375 495.237915,104.145302 
	C495.818268,104.934235 499.144165,104.857315 500.072662,103.971954 
	C501.546783,102.566353 502.541748,100.208313 502.786560,98.140373 
	C502.922821,96.989296 501.109802,94.522682 500.212585,94.540359 
	C497.667847,94.590523 495.142303,95.614235 492.269073,96.981354 
z"/>
<path fill="#21201E" opacity="1.000000" stroke="none" 
	d="
M382.684662,204.823761 
	C378.506531,206.068756 374.704956,207.190338 369.858704,208.620117 
	C370.962860,198.172485 372.012634,188.463791 373.007080,178.749435 
	C373.641998,172.547073 377.897675,170.841080 383.096466,171.186905 
	C395.305481,171.998978 407.489624,173.184967 420.442291,174.283981 
	C416.795685,185.314529 412.435547,193.982056 401.640289,197.656998 
	C395.374146,199.790100 389.249512,202.338699 382.684662,204.823761 
z"/>
<path fill="#242321" opacity="1.000000" stroke="none" 
	d="
M330.974609,195.933594 
	C334.883850,189.621872 334.936066,189.548294 340.490692,193.491043 
	C347.648773,198.571960 354.712799,203.785446 361.817322,208.941818 
	C361.764557,209.433441 361.711792,209.925049 361.659027,210.416672 
	C348.657990,211.924530 335.656952,213.432404 321.352661,215.091415 
	C324.827850,208.179916 327.822540,202.224075 330.974609,195.933594 
z"/>
<path fill="#242321" opacity="1.000000" stroke="none" 
	d="
M243.079956,220.983521 
	C236.128418,219.816452 229.648605,218.637177 223.441315,217.507492 
	C223.659714,213.972672 223.825333,211.292007 224.037064,207.865021 
	C229.011444,204.199768 234.616287,200.069977 240.593063,195.666122 
	C245.722397,203.748383 250.669144,211.542938 256.130981,220.149078 
	C251.364517,220.460632 247.458084,220.715958 243.079956,220.983521 
z"/>
<path fill="#242321" opacity="1.000000" stroke="none" 
	d="
M298.568420,200.159546 
	C300.957153,203.183517 303.292450,205.802734 305.147430,208.726669 
	C306.342621,210.610504 306.832642,212.941696 307.981567,215.978653 
	C295.208649,216.789581 283.729706,217.518341 272.250732,218.247101 
	C272.020630,217.798981 271.790527,217.350845 271.560455,216.902710 
	C279.518433,210.410995 287.476440,203.919296 296.283356,196.735107 
	C296.914673,197.715317 297.613037,198.799637 298.568420,200.159546 
z"/>
<path fill="#272624" opacity="1.000000" stroke="none" 
	d="
M417.731323,134.319519 
	C416.230652,130.783875 414.889893,127.600136 413.219910,123.634598 
	C418.416260,123.131294 423.052551,122.682228 428.460632,122.158409 
	C427.354736,131.667313 426.288544,140.834732 425.222382,150.002167 
	C424.737549,150.040054 424.252747,150.077957 423.767944,150.115845 
	C421.809052,144.967697 419.850128,139.819550 417.731323,134.319519 
z"/>
<path fill="#303F1C" opacity="1.000000" stroke="none" 
	d="
M187.975708,334.489563 
	C189.326538,341.297943 191.323120,348.523438 191.733917,355.837982 
	C192.586288,371.014404 192.603485,386.237976 192.929825,401.442902 
	C192.943298,402.071503 192.610489,402.707489 192.173401,403.655212 
	C190.886810,386.238312 189.868103,368.506104 188.843491,350.774231 
	C188.538620,345.498016 188.217224,340.222717 187.975708,334.489563 
z"/>
<path fill="#3C5F18" opacity="1.000000" stroke="none" 
	d="
M500.897339,216.590790 
	C501.211548,210.965973 500.961884,204.793655 502.223633,198.947525 
	C505.539825,183.582809 505.996307,168.041168 506.564117,152.450485 
	C506.699463,148.733429 508.436646,145.074692 509.767639,141.224014 
	C507.072937,166.103256 504.047607,191.147598 500.897339,216.590790 
z"/>
<path fill="#252F18" opacity="1.000000" stroke="none" 
	d="
M68.232727,133.227615 
	C71.416939,134.125488 75.183739,134.702591 78.070534,136.610901 
	C83.117508,139.947174 87.711418,144.000427 92.298607,147.979828 
	C93.543861,149.060104 94.084694,150.952393 94.908455,152.848785 
	C86.051750,146.652466 77.235420,140.079346 68.232727,133.227615 
z"/>
<path fill="#2B2A28" opacity="1.000000" stroke="none" 
	d="
M433.887329,66.267967 
	C437.097565,67.220390 439.917572,68.101074 443.556030,69.237366 
	C442.105835,73.340446 440.695312,77.331429 439.284760,81.322411 
	C438.622772,81.323807 437.960815,81.325195 437.298828,81.326591 
	C436.031586,76.283134 434.764343,71.239685 433.887329,66.267967 
z"/>
<path fill="#3C5F18" opacity="1.000000" stroke="none" 
	d="
M496.895691,270.544128 
	C496.535522,264.268646 495.694702,257.508575 496.154999,250.838272 
	C496.876312,240.385544 498.476532,229.993500 500.010986,219.339462 
	C499.211151,236.102036 498.104767,253.100906 496.895691,270.544128 
z"/>
<path fill="#263513" opacity="1.000000" stroke="none" 
	d="
M261.389008,404.320862 
	C260.735413,399.204529 260.139923,393.761719 260.038818,388.309723 
	C259.896545,380.636292 261.406219,379.483795 269.620789,380.596130 
	C263.490814,383.045288 261.880066,385.558990 262.062714,392.155365 
	C262.171753,396.093658 261.815063,400.044830 261.389008,404.320862 
z"/>
<path fill="#3C5F18" opacity="1.000000" stroke="none" 
	d="
M495.127258,310.411987 
	C494.305939,309.468719 492.527527,308.122437 492.573059,306.840973 
	C492.858948,298.799347 493.510986,290.768921 494.156219,282.744019 
	C494.243500,281.658875 494.971375,280.625275 495.667053,279.293915 
	C495.292664,287.799896 494.590424,296.576050 494.074921,305.363129 
	C493.984894,306.898102 494.680603,308.479156 495.127258,310.411987 
z"/>
<path fill="#2C3B1B" opacity="1.000000" stroke="none" 
	d="
M478.358948,395.850098 
	C478.049103,389.466431 478.101105,383.137482 478.245697,376.810638 
	C478.285614,375.064453 478.601227,373.324554 479.113403,371.329987 
	C480.169861,376.049896 481.205292,381.001831 481.532806,386.000122 
	C481.759338,389.456635 484.386993,393.959106 478.358948,395.850098 
z"/>
<path fill="#3C5F18" opacity="1.000000" stroke="none" 
	d="
M587.348389,117.871857 
	C587.368286,116.156967 587.241699,114.020172 588.040100,112.317017 
	C591.119995,105.746819 590.549316,99.615135 586.614624,93.640663 
	C586.426819,93.355484 586.740662,92.739883 587.069092,92.070602 
	C592.066895,97.939430 593.480164,104.465599 590.084961,111.695358 
	C589.173279,113.636635 588.441162,115.662239 587.348389,117.871857 
z"/>
<path fill="#2B391C" opacity="1.000000" stroke="none" 
	d="
M135.875809,198.452789 
	C142.084961,200.397079 146.153946,204.540680 146.874939,211.843262 
	C143.211731,207.755951 139.589920,203.271637 135.875809,198.452789 
z"/>
<path fill="#364A21" opacity="1.000000" stroke="none" 
	d="
M492.400879,344.959412 
	C493.370605,339.333405 494.653564,333.538666 496.251160,327.371643 
	C496.565765,326.999359 497.045807,327.010986 497.045807,327.010986 
	C495.601929,332.937531 494.158020,338.864105 492.400879,344.959412 
z"/>
<path fill="#3C5F18" opacity="1.000000" stroke="none" 
	d="
M550.029114,64.603867 
	C539.511841,62.635880 528.668518,61.259514 517.150269,61.896477 
	C526.224365,59.688393 535.735413,59.887245 545.169678,62.578342 
	C546.745117,63.027718 548.246033,63.738380 550.029114,64.603867 
z"/>
<path fill="#3C5F18" opacity="1.000000" stroke="none" 
	d="
M532.442871,139.177032 
	C539.544373,138.078186 547.095398,137.096573 555.156250,136.176117 
	C548.074829,137.256256 540.483704,138.275253 532.442871,139.177032 
z"/>
<path fill="#3C5F18" opacity="1.000000" stroke="none" 
	d="
M497.187012,326.637329 
	C497.045807,327.010986 496.565765,326.999359 496.326782,326.994507 
	C495.803070,321.838654 495.518341,316.687653 495.224060,311.148041 
	C498.720581,311.474243 499.460754,313.765472 498.860260,316.948547 
	C498.277069,320.039886 497.833252,323.157593 497.187012,326.637329 
z"/>
<path fill="#3C5F18" opacity="1.000000" stroke="none" 
	d="
M565.987671,72.632248 
	C561.812256,70.862549 557.480652,68.786545 553.082886,66.358047 
	C557.288391,68.112350 561.559937,70.219147 565.987671,72.632248 
z"/>
<path fill="#3C5F18" opacity="1.000000" stroke="none" 
	d="
M510.380493,140.883011 
	C509.921631,137.064789 512.672424,136.045441 515.789001,136.186127 
	C518.118530,136.291275 520.406982,137.307281 522.874329,138.226227 
	C518.835938,138.785492 514.100098,135.940033 510.380493,140.883011 
z"/>
<path fill="#3C5F18" opacity="1.000000" stroke="none" 
	d="
M513.528992,62.950241 
	C508.884949,63.556198 503.782196,64.096672 498.353516,64.446304 
	C503.041779,63.798561 508.056061,63.341663 513.528992,62.950241 
z"/>
<path fill="#3C5F18" opacity="1.000000" stroke="none" 
	d="
M576.681458,80.772049 
	C574.611938,79.559196 572.375061,78.066330 570.098694,76.217651 
	C572.210876,77.405228 574.362427,78.948624 576.681458,80.772049 
z"/>
<path fill="#3C5F18" opacity="1.000000" stroke="none" 
	d="
M557.342896,135.940887 
	C558.824036,134.290680 560.658630,132.671890 562.860596,131.075119 
	C561.384033,132.722198 559.540222,134.347260 557.342896,135.940887 
z"/>
<path fill="#3C5F18" opacity="1.000000" stroke="none" 
	d="
M585.062866,88.633392 
	C584.084473,87.901482 583.035950,86.851151 581.970642,85.442627 
	C582.966797,86.161278 583.979736,87.238129 585.062866,88.633392 
z"/>
<path fill="#3C5F18" opacity="1.000000" stroke="none" 
	d="
M568.431641,130.889725 
	C570.127258,130.658081 572.249329,130.533936 574.678955,130.605316 
	C572.943665,130.866318 570.900940,130.931763 568.431641,130.889725 
z"/>
<path fill="#3C5F18" opacity="1.000000" stroke="none" 
	d="
M496.197021,276.720642 
	C496.019806,276.057190 495.993866,275.118164 496.229004,274.072632 
	C496.442810,274.792450 496.395538,275.618713 496.197021,276.720642 
z"/>
<path fill="#3C5F18" opacity="1.000000" stroke="none" 
	d="
M585.373169,122.016373 
	C585.518127,120.882416 585.950867,119.563690 586.736938,118.148666 
	C586.613831,119.312111 586.137390,120.571861 585.373169,122.016373 
z"/>
<path fill="#3C5F18" opacity="1.000000" stroke="none" 
	d="
M579.487122,128.324753 
	C579.928894,127.647873 580.683105,126.880692 581.814697,126.136307 
	C581.394531,126.850883 580.597046,127.542664 579.487122,128.324753 
z"/>
<path fill="#3C5F18" opacity="1.000000" stroke="none" 
	d="
M581.783142,84.770584 
	C581.016724,84.517235 580.125366,83.984123 579.205566,83.111908 
	C580.004211,83.345482 580.831177,83.918152 581.783142,84.770584 
z"/>
<path fill="#303F1C" opacity="1.000000" stroke="none" 
	d="
M186.916870,326.481110 
	C187.253250,327.661407 187.565720,329.255707 187.815033,331.288391 
	C187.465576,330.116241 187.179260,328.505646 186.916870,326.481110 
z"/>
<path fill="#303F1C" opacity="1.000000" stroke="none" 
	d="
M191.165512,411.453461 
	C191.493576,412.490784 191.721756,413.893463 191.931335,415.661713 
	C191.630356,414.624451 191.347992,413.221649 191.165512,411.453461 
z"/>
<path fill="#3C5F18" opacity="1.000000" stroke="none" 
	d="
M525.368286,138.937057 
	C525.875244,138.741791 526.745483,138.669281 527.811768,138.810104 
	C527.249146,139.035553 526.490356,139.047684 525.368286,138.937057 
z"/>
<path fill="#2C3B1B" opacity="1.000000" stroke="none" 
	d="
M479.514954,371.115295 
	C479.439514,370.725922 479.583527,370.121826 479.986084,369.333710 
	C480.074524,369.733307 479.904449,370.316925 479.514954,371.115295 
z"/>
<path fill="#3C5F18" opacity="1.000000" stroke="none" 
	d="
M495.680237,64.982758 
	C495.453918,65.302849 494.901031,65.593735 494.027557,65.871513 
	C494.255859,65.556778 494.804749,65.255165 495.680237,64.982758 
z"/>
<path fill="#2B391C" opacity="1.000000" stroke="none" 
	d="
M133.744659,195.397293 
	C134.065842,195.543884 134.476425,195.981400 134.949951,196.725830 
	C134.619934,196.584579 134.226990,196.136414 133.744659,195.397293 
z"/>
<path fill="#2B391C" opacity="1.000000" stroke="none" 
	d="
M146.786102,212.362579 
	C147.109467,212.514420 147.503113,212.964081 147.953110,213.719025 
	C147.625092,213.569656 147.240723,213.115021 146.786102,212.362579 
z"/>
<path fill="#252F18" opacity="1.000000" stroke="none" 
	d="
M66.969681,132.290802 
	C67.166504,132.184830 67.446297,132.363419 67.871773,132.762131 
	C67.718697,132.810852 67.397095,132.675217 66.969681,132.290802 
z"/>
<path fill="#3C5F18" opacity="1.000000" stroke="none" 
	d="
M582.393188,126.128525 
	C582.314148,125.917740 582.503357,125.616249 582.931763,125.187622 
	C583.001160,125.386269 582.831299,125.712044 582.393188,126.128525 
z"/>
<path fill="#2B391C" opacity="1.000000" stroke="none" 
	d="
M135.024673,197.259308 
	C135.231445,197.227844 135.482056,197.479477 135.833130,197.982330 
	C135.645248,198.003174 135.356888,197.772797 135.024673,197.259308 
z"/>
<path fill="#3C5F18" opacity="1.000000" stroke="none" 
	d="
M552.337158,65.548424 
	C552.153503,65.688278 551.795166,65.585655 551.224121,65.295387 
	C551.395142,65.173805 551.778809,65.239876 552.337158,65.548424 
z"/>
<path fill="#2B391C" opacity="1.000000" stroke="none" 
	d="
M148.026291,214.278259 
	C148.230042,214.266693 148.472015,214.551956 148.811340,215.103638 
	C148.627274,215.105072 148.345901,214.840088 148.026291,214.278259 
z"/>
<path fill="#3C5F18" opacity="1.000000" stroke="none" 
	d="
M579.135498,82.580162 
	C578.935364,82.676125 578.629639,82.516380 578.179810,82.137207 
	C578.367126,82.053329 578.698547,82.188896 579.135498,82.580162 
z"/>
<path fill="#1F1E1C" opacity="1.000000" stroke="none" 
	d="
M415.346893,161.725677 
	C415.407959,161.917496 415.196899,162.341202 414.773865,162.610382 
	C414.732880,162.289749 414.903839,162.123657 415.346893,161.725677 
z"/>
<path fill="#252F18" opacity="1.000000" stroke="none" 
	d="
M95.877243,154.300537 
	C96.076981,154.243973 96.369698,154.467896 96.814285,154.924210 
	C96.634178,154.964752 96.302208,154.772873 95.877243,154.300537 
z"/>
<path fill="#252F18" opacity="1.000000" stroke="none" 
	d="
M94.853409,153.331268 
	C95.066628,153.267029 95.375725,153.494232 95.829910,153.974304 
	C95.633087,154.025681 95.291191,153.824203 94.853409,153.331268 
z"/>
<path fill="#3C5F18" opacity="1.000000" stroke="none" 
	d="
M564.259033,130.924866 
	C564.172729,130.576050 564.421570,130.465927 564.867065,130.663208 
	C564.823547,130.830139 564.667053,130.894440 564.259033,130.924866 
z"/>
<path fill="#3C5F18" opacity="1.000000" stroke="none" 
	d="
M577.204590,129.799927 
	C577.110229,129.529755 577.336426,129.309723 577.860474,129.091904 
	C577.879456,129.276276 577.668396,129.528259 577.204590,129.799927 
z"/>
<path fill="#1E2117" opacity="1.000000" stroke="none" 
	d="
M208.045715,283.023651 
	C203.314835,276.414917 203.725922,270.624084 209.385132,264.157104 
	C214.907913,257.846008 222.063477,255.550766 227.324753,258.761719 
	C229.040222,259.808655 231.191299,261.728973 231.334000,263.403931 
	C231.563568,266.098511 231.013611,269.532288 229.383102,271.463135 
	C228.386414,272.643402 224.752197,271.528198 222.305191,271.576935 
	C220.776672,271.607391 219.253082,271.885345 217.727264,272.052246 
	C218.356644,273.467010 218.604111,275.520355 219.690887,276.170349 
	C222.371490,277.773651 225.469070,278.663147 228.338943,279.971375 
	C231.053024,281.208618 233.934692,282.281219 236.305511,284.021698 
	C240.012146,286.742798 243.119873,290.100891 241.642487,295.375366 
	C240.507935,299.425842 236.303162,301.794830 230.472488,302.051849 
	C222.879868,302.386536 215.462936,301.786652 208.780426,297.801605 
	C202.916992,294.304962 202.496811,290.192993 207.997681,286.058228 
	C209.483658,285.848846 210.296860,285.704803 212.015411,285.400360 
	C210.130173,284.271637 209.087936,283.647644 208.045715,283.023651 
M214.723206,286.508972 
	C214.426117,286.596954 214.116425,286.658356 213.839722,286.789398 
	C213.758606,286.827789 213.714020,287.175537 213.748764,287.193268 
	C215.688019,288.183014 217.637466,289.152771 219.585892,290.124512 
	C219.768509,289.704376 219.951126,289.284241 220.133743,288.864105 
	C218.524734,288.145721 216.915741,287.427338 214.723206,286.508972 
M222.882843,290.636597 
	C222.882843,290.636597 223.164993,290.442291 223.164993,290.442291 
	C223.164993,290.442291 222.789978,290.468445 222.882843,290.636597 
z"/>
<path fill="#1E2019" opacity="1.000000" stroke="none" 
	d="
M316.067139,251.978500 
	C316.342377,252.117340 316.576019,252.307343 317.007629,252.955551 
	C317.443756,253.630371 317.690033,253.839676 317.985962,253.990540 
	C317.985962,253.990540 318.042358,254.424683 318.163513,254.874695 
	C318.547516,255.538742 318.810303,255.752777 319.073120,255.966812 
	C321.723083,259.519775 324.500702,262.986298 326.983093,266.652710 
	C329.008942,269.644928 330.536652,272.973450 332.549500,275.975739 
	C334.908234,279.493866 334.635101,286.709930 331.596008,288.788513 
	C328.168732,291.132599 325.124695,290.103058 322.223877,287.394104 
	C320.902313,286.159943 319.027802,285.517883 316.368439,284.026428 
	C316.873413,289.844696 317.621063,294.788940 311.748169,295.658936 
	C307.926727,296.225067 305.708130,293.573395 304.989014,289.052277 
	C304.641052,286.501434 304.308350,284.726288 303.994141,282.615936 
	C304.047241,281.834442 304.081787,281.388123 304.341766,280.606323 
	C304.691620,272.472565 304.816071,264.674316 304.940552,256.876099 
	C304.940552,256.876099 304.945190,256.439545 305.199829,256.024414 
	C305.952667,254.717697 306.450897,253.826080 306.949158,252.934448 
	C306.949127,252.934448 306.993805,252.946243 307.181519,252.828674 
	C307.629181,252.507553 307.825531,252.254593 307.958313,251.952255 
	C307.958313,251.952255 307.971954,251.945572 308.411713,251.957962 
	C311.256683,251.973068 313.661926,251.975784 316.067139,251.978500 
z"/>
<path fill="#1E2117" opacity="1.000000" stroke="none" 
	d="
M263.378387,258.281525 
	C270.570618,256.765778 277.388306,255.360336 284.233002,254.101425 
	C285.499329,253.868515 286.930023,254.018585 288.188171,254.354294 
	C291.195435,255.156616 293.227356,256.896179 293.001312,260.370087 
	C292.755920,264.140717 290.139374,265.445038 286.972382,265.865051 
	C282.903778,266.404602 278.798828,266.670227 274.016266,267.118866 
	C275.141632,271.622833 276.109863,275.410645 277.030396,279.210022 
	C277.734924,282.117859 278.274170,285.069611 279.078674,287.948273 
	C279.943665,291.043304 280.252563,294.209473 277.179413,295.943665 
	C275.583252,296.844391 272.643555,297.070831 271.200134,296.172699 
	C268.386780,294.422150 266.154907,292.299072 266.242706,287.832642 
	C266.349457,282.402618 264.375793,276.931671 263.183838,270.877655 
	C260.882904,271.811310 259.504120,272.258881 258.229431,272.910248 
	C255.148529,274.484619 252.524170,273.621307 250.838470,270.971527 
	C248.970520,268.035248 249.669434,264.881927 252.601089,263.127014 
	C255.844376,261.185547 259.523743,259.972595 263.378387,258.281525 
z"/>
<path fill="#1E2118" opacity="1.000000" stroke="none" 
	d="
M411.668579,274.304230 
	C410.597778,275.611359 409.822144,277.100861 408.721680,277.401520 
	C399.585205,279.897827 390.338379,280.397552 381.513367,276.503723 
	C377.579437,274.767944 377.780670,270.926971 381.397949,265.331451 
	C377.056946,260.745209 376.919342,255.695740 380.391998,250.485046 
	C383.152405,246.343094 390.679138,243.592377 396.022064,245.217697 
	C397.558777,245.685150 399.461456,247.721893 399.640686,249.224670 
	C399.904419,251.436234 399.101288,253.972290 398.100189,256.056824 
	C397.574707,257.151001 395.660980,257.578491 394.093231,258.466125 
	C398.608093,260.653931 403.017883,262.692719 407.334412,264.912811 
	C410.968292,266.781799 412.717072,269.738770 411.668579,274.304230 
z"/>
<path fill="#1E2116" opacity="1.000000" stroke="none" 
	d="
M336.940125,255.853821 
	C346.630066,252.445831 356.003967,249.127853 365.514313,246.262726 
	C368.995117,245.214081 372.488708,246.467148 373.425690,250.397797 
	C374.367310,254.347931 371.634155,256.445892 368.203125,257.668396 
	C368.047272,257.723907 367.882050,257.752899 367.721497,257.795349 
	C355.775330,260.954071 355.804443,260.946930 358.773407,273.037018 
	C359.364380,275.443634 360.125061,277.973785 359.901184,280.362000 
	C359.728455,282.204529 358.403564,285.120117 357.114380,285.405426 
	C355.083344,285.854950 351.508087,285.197693 350.625519,283.758545 
	C348.717957,280.648163 348.046844,276.761292 346.976868,273.160309 
	C345.791656,269.171387 345.880066,264.627228 339.473389,264.668243 
	C335.769470,264.692017 334.678772,260.402283 336.940125,255.853821 
z"/>
<path fill="#1E2116" opacity="1.000000" stroke="none" 
	d="
M543.876404,128.971191 
	C543.017151,129.482010 542.157898,129.992859 540.935303,130.886444 
	C540.309875,131.461395 540.111511,131.705368 539.976868,132.001129 
	C539.976868,132.001129 540.008057,132.007278 539.718994,132.040161 
	C538.953064,132.381073 538.476318,132.689102 537.999512,132.997131 
	C537.999512,132.997131 538.000000,133.000000 537.583252,133.033691 
	C533.118835,133.383942 529.071167,133.700485 525.023499,134.017044 
	C525.023499,134.017044 524.553345,133.963654 524.074951,133.724518 
	C521.737915,132.650040 519.879211,131.814697 518.020508,130.979355 
	C518.020508,130.979355 518.004578,130.998123 517.816528,130.771088 
	C517.093506,130.340439 516.558594,130.136810 516.023621,129.933197 
	C516.023621,129.933182 516.005920,129.993607 515.995361,129.695801 
	C515.661682,128.927170 515.338623,128.456360 515.015503,127.985542 
	C514.768921,127.482422 514.522400,126.979294 514.141052,125.832306 
	C514.008057,124.124992 514.009888,123.061523 514.011719,121.998062 
	C514.656677,120.936714 515.301697,119.875381 516.370239,118.437088 
	C520.101074,116.550179 522.645569,117.444443 524.913147,120.237312 
	C527.570679,123.510422 530.677246,124.335258 534.009094,121.000992 
	C534.009094,121.000992 533.999390,120.998978 534.289307,120.848320 
	C536.373108,118.797646 538.166992,116.897629 539.960938,114.997612 
	C539.960938,114.997612 539.998718,115.003288 540.401550,114.980957 
	C542.859375,115.295280 544.914368,115.631943 546.969360,115.968605 
	C547.177185,116.230644 547.385071,116.492676 547.813354,117.299698 
	C547.354248,120.559578 546.674805,123.274452 545.995422,125.989334 
	C545.995422,125.989334 545.997559,125.998367 545.777344,126.191124 
	C545.351685,126.917526 545.146240,127.451180 544.940857,127.984833 
	C544.940857,127.984840 544.992615,128.006500 544.766174,128.105484 
	C544.318665,128.460037 544.097534,128.715607 543.876404,128.971191 
z"/>
<path fill="#1C2511" opacity="1.000000" stroke="none" 
	d="
M492.439148,96.617966 
	C495.142303,95.614235 497.667847,94.590523 500.212585,94.540359 
	C501.109802,94.522682 502.922821,96.989296 502.786560,98.140373 
	C502.541748,100.208313 501.546783,102.566353 500.072662,103.971954 
	C499.144165,104.857315 495.818268,104.934235 495.237915,104.145302 
	C493.750641,102.123375 493.196381,99.415169 492.439148,96.617966 
z"/>
<path fill="#355513" opacity="1.000000" stroke="none" 
	d="
M304.116364,280.941833 
	C304.081787,281.388123 304.047241,281.834442 303.771790,282.887573 
	C303.690521,285.331177 303.850159,287.167908 304.009796,289.004639 
	C303.347015,287.994537 302.080048,286.962799 302.115326,285.977661 
	C302.453125,276.533813 303.010834,267.097839 303.760742,257.799683 
	C304.049438,265.607117 304.082886,273.274475 304.116364,280.941833 
z"/>
<path fill="#3C5F18" opacity="1.000000" stroke="none" 
	d="
M533.584595,121.000626 
	C530.677246,124.335258 527.570679,123.510422 524.913147,120.237312 
	C522.645569,117.444443 520.101074,116.550179 516.425415,118.124863 
	C519.104248,114.477280 522.650574,115.157532 525.315552,118.095016 
	C527.648926,120.666946 530.082703,121.283669 533.584595,121.000626 
z"/>
<path fill="#3C5F18" opacity="1.000000" stroke="none" 
	d="
M525.151428,134.378326 
	C529.071167,133.700485 533.118835,133.383942 537.582031,133.032837 
	C534.231384,137.034927 529.896729,136.919556 525.151428,134.378326 
z"/>
<path fill="#1A2A06" opacity="1.000000" stroke="none" 
	d="
M304.341766,280.606323 
	C304.082886,273.274475 304.049438,265.607117 304.014465,257.471405 
	C304.012939,257.003052 304.477844,256.944733 304.709198,256.910400 
	C304.816071,264.674316 304.691620,272.472565 304.341766,280.606323 
z"/>
<path fill="#1C2D09" opacity="1.000000" stroke="none" 
	d="
M550.020081,84.973961 
	C552.917114,88.009636 553.218262,91.008530 549.488159,94.019264 
	C549.083435,94.082481 548.982056,93.980438 549.059143,93.587326 
	C549.403381,90.483643 549.670471,87.773064 549.958374,85.040558 
	C549.979248,85.018631 550.020081,84.973961 550.020081,84.973961 
z"/>
<path fill="#3C5F18" opacity="1.000000" stroke="none" 
	d="
M546.351501,125.921539 
	C546.674805,123.274452 547.354248,120.559578 548.025696,117.436096 
	C551.776611,120.592354 549.668152,123.286301 546.351501,125.921539 
z"/>
<path fill="#1C2D09" opacity="1.000000" stroke="none" 
	d="
M541.963501,94.045784 
	C538.425293,90.527824 539.912048,87.659897 543.520874,84.963623 
	C543.910095,84.911110 544.006226,85.007019 543.904053,85.363213 
	C543.222534,88.458267 542.643066,91.197121 542.038330,93.963181 
	C542.013000,93.990372 541.963501,94.045784 541.963501,94.045784 
z"/>
<path fill="#3C5F18" opacity="1.000000" stroke="none" 
	d="
M539.598755,115.014191 
	C538.166992,116.897629 536.373108,118.797646 534.289917,120.853432 
	C535.745972,119.016396 537.491272,117.023582 539.598755,115.014191 
z"/>
<path fill="#1A2A06" opacity="1.000000" stroke="none" 
	d="
M315.854584,251.678635 
	C313.661926,251.975784 311.256683,251.973068 308.401367,251.950745 
	C310.324188,249.092270 312.921692,249.380585 315.854584,251.678635 
z"/>
<path fill="#3C5F18" opacity="1.000000" stroke="none" 
	d="
M546.876831,115.630203 
	C544.914368,115.631943 542.859375,115.295280 540.403564,114.961922 
	C542.441467,111.371994 544.627441,113.029236 546.876831,115.630203 
z"/>
<path fill="#1C2D09" opacity="1.000000" stroke="none" 
	d="
M549.134399,94.133194 
	C547.107971,97.147018 544.782532,96.440399 542.173462,94.344711 
	C541.963501,94.045784 542.013000,93.990372 542.467651,93.981018 
	C544.942200,93.974594 546.962158,93.977516 548.982056,93.980438 
	C548.982056,93.980438 549.083435,94.082481 549.134399,94.133194 
z"/>
<path fill="#1C2D09" opacity="1.000000" stroke="none" 
	d="
M543.861816,84.863312 
	C545.566223,82.152893 547.552551,82.702217 549.820984,84.683464 
	C550.020081,84.973961 549.979248,85.018631 549.537598,85.023720 
	C547.399414,85.021545 545.702820,85.014282 544.006226,85.007019 
	C544.006226,85.007019 543.910095,84.911110 543.861816,84.863312 
z"/>
<path fill="#3C5F18" opacity="1.000000" stroke="none" 
	d="
M518.109985,131.325623 
	C519.879211,131.814697 521.737915,132.650040 523.838379,133.721756 
	C522.119934,133.196060 520.159668,132.433990 518.109985,131.325623 
z"/>
<path fill="#1A2A06" opacity="1.000000" stroke="none" 
	d="
M304.241760,289.025574 
	C303.850159,287.167908 303.690521,285.331177 303.753235,283.222778 
	C304.308350,284.726288 304.641052,286.501434 304.955139,288.688263 
	C304.936523,289.099945 304.473755,289.046478 304.241760,289.025574 
z"/>
<path fill="#334122" opacity="1.000000" stroke="none" 
	d="
M208.029999,283.392456 
	C209.087936,283.647644 210.130173,284.271637 212.015411,285.400360 
	C210.296860,285.704803 209.483658,285.848846 208.351868,285.984253 
	C208.026962,285.237457 208.020630,284.499359 208.029999,283.392456 
z"/>
<path fill="#3C5F18" opacity="1.000000" stroke="none" 
	d="
M513.786865,122.234093 
	C514.009888,123.061523 514.008057,124.124992 514.005615,125.586655 
	C513.857300,124.813271 513.709717,123.641701 513.786865,122.234093 
z"/>
<path fill="#1A2A06" opacity="1.000000" stroke="none" 
	d="
M306.630005,253.034180 
	C306.450897,253.826080 305.952667,254.717697 305.219910,255.807068 
	C305.427246,255.047852 305.869080,254.090881 306.630005,253.034180 
z"/>
<path fill="#3C5F18" opacity="1.000000" stroke="none" 
	d="
M538.288452,132.954773 
	C538.476318,132.689102 538.953064,132.381073 539.716797,132.024445 
	C539.528320,132.288025 539.052856,132.600235 538.288452,132.954773 
z"/>
<path fill="#3C5F18" opacity="1.000000" stroke="none" 
	d="
M516.210327,130.158630 
	C516.558594,130.136810 517.093506,130.340439 517.820618,130.762527 
	C517.474182,130.782013 516.935547,130.583038 516.210327,130.158630 
z"/>
<path fill="#3C5F18" opacity="1.000000" stroke="none" 
	d="
M545.164185,127.796707 
	C545.146240,127.451180 545.351685,126.917526 545.773926,126.191612 
	C545.789612,126.535759 545.588562,127.072174 545.164185,127.796707 
z"/>
<path fill="#3C5F18" opacity="1.000000" stroke="none" 
	d="
M515.056885,128.276169 
	C515.338623,128.456360 515.661682,128.927170 516.025635,129.687241 
	C515.743774,129.506592 515.421082,129.036697 515.056885,128.276169 
z"/>
<path fill="#3C5F18" opacity="1.000000" stroke="none" 
	d="
M540.177490,131.877121 
	C540.111511,131.705368 540.309875,131.461395 540.780518,131.156479 
	C540.833984,131.322021 540.630371,131.558472 540.177490,131.877121 
z"/>
<path fill="#1A2A06" opacity="1.000000" stroke="none" 
	d="
M318.938477,255.752594 
	C318.810303,255.752777 318.547516,255.538742 318.170013,255.093491 
	C318.304840,255.087631 318.554352,255.313004 318.938477,255.752594 
z"/>
<path fill="#1A2A06" opacity="1.000000" stroke="none" 
	d="
M307.747101,252.072235 
	C307.825531,252.254593 307.629181,252.507553 307.160767,252.834534 
	C307.077759,252.650024 307.272278,252.394775 307.747101,252.072235 
z"/>
<path fill="#1A2A06" opacity="1.000000" stroke="none" 
	d="
M317.866577,253.777802 
	C317.690033,253.839676 317.443756,253.630371 317.128113,253.148193 
	C317.303009,253.088181 317.549072,253.298599 317.866577,253.777802 
z"/>
<path fill="#3C5F18" opacity="1.000000" stroke="none" 
	d="
M544.101440,128.848907 
	C544.097534,128.715607 544.318665,128.460037 544.760620,128.078003 
	C544.763123,128.209900 544.544739,128.468246 544.101440,128.848907 
z"/>
<path fill="#334122" opacity="1.000000" stroke="none" 
	d="
M215.014984,286.608948 
	C216.915741,287.427338 218.524734,288.145721 220.133743,288.864105 
	C219.951126,289.284241 219.768509,289.704376 219.585892,290.124512 
	C217.637466,289.152771 215.688019,288.183014 213.748764,287.193268 
	C213.714020,287.175537 213.758606,286.827789 213.839722,286.789398 
	C214.116425,286.658356 214.426117,286.596954 215.014984,286.608948 
z"/>
<path fill="#334122" opacity="1.000000" stroke="none" 
	d="
M222.836411,290.552521 
	C222.789978,290.468445 223.164993,290.442291 223.164993,290.442291 
	C223.164993,290.442291 222.882843,290.636597 222.836411,290.552521 
z"/>
<path fill="#1F1F19" opacity="1.000000" stroke="none" 
	d="
M543.904053,85.363220 
	C545.702820,85.014282 547.399414,85.021545 549.516785,85.045647 
	C549.670471,87.773064 549.403381,90.483643 549.059143,93.587326 
	C546.962158,93.977516 544.942200,93.974594 542.492981,93.953827 
	C542.643066,91.197121 543.222534,88.458267 543.904053,85.363220 
z"/>
</svg>